<?xml version="1.0" standalone="no"?>
<!DOCTYPE svg PUBLIC "-//W3C//DTD SVG 20010904//EN"
 "http://www.w3.org/TR/2001/REC-SVG-20010904/DTD/svg10.dtd">
<svg version="1.0" xmlns="http://www.w3.org/2000/svg"
 width="1280.000000pt" height="720.000000pt" viewBox="0 0 1280.000000 720.000000"
 preserveAspectRatio="xMidYMid meet">

<g transform="translate(0.000000,720.000000) scale(0.100000,-0.100000)"
fill="#000000" stroke="none">
<path d="M3908 6393 c-135 -213 -327 -518 -428 -678 -101 -159 -185 -299 -187
-311 -4 -17 71 -301 82 -313 2 -2 172 114 377 256 205 143 382 266 394 273 19
12 51 -11 393 -280 205 -161 374 -291 375 -289 2 2 25 106 51 231 l46 227
-227 338 c-125 186 -315 469 -422 628 -107 160 -198 294 -202 298 -4 5 -117
-166 -252 -380z m243 -100 c0 -33 10 -117 14 -121 1 -1 17 20 35 48 28 43 35
49 47 38 11 -12 8 -27 -22 -96 l-36 -82 41 -69 c31 -53 39 -75 34 -95 -3 -14
-9 -26 -13 -26 -3 0 -23 19 -43 42 l-37 43 -1 -82 c0 -46 -3 -83 -7 -83 -22 1
-31 21 -38 80 -4 36 -9 68 -12 73 -2 4 -20 -12 -40 -35 -43 -53 -49 -55 -57
-25 -4 16 4 47 25 92 l30 66 -35 49 c-32 44 -34 52 -25 79 l11 31 44 -36 44
-36 0 79 c0 44 3 83 7 86 15 16 33 5 34 -20z m597 -593 c-1 -33 -1 -60 0 -60
2 0 16 9 30 21 25 19 27 19 39 3 11 -14 7 -25 -24 -67 l-37 -50 25 -73 c18
-52 23 -78 16 -90 -8 -14 -15 -7 -37 42 l-27 59 -7 -40 c-13 -76 -16 -85 -29
-85 -9 0 -12 18 -9 71 5 77 7 76 -50 37 -45 -31 -47 4 -2 71 l27 42 -21 51
c-17 39 -19 55 -11 71 10 18 13 17 38 -22 31 -48 41 -51 41 -12 0 51 12 91 27
91 12 0 14 -12 11 -60z m-1124 -52 c-8 -39 -13 -72 -11 -73 40 -25 77 -62 77
-76 0 -22 -8 -23 -45 -9 l-26 10 7 -46 c10 -69 10 -77 -1 -80 -5 -2 -19 18
-31 44 l-21 47 -18 -57 c-24 -74 -39 -64 -30 19 7 64 6 66 -24 94 -43 38 -41
59 5 59 l36 0 -7 55 c-9 77 4 89 30 29 l22 -49 12 53 c7 29 19 52 26 52 10 0
10 -14 -1 -72z"/>
<path d="M2020 6585 c0 -14 18 -171 40 -348 21 -177 51 -419 65 -537 67 -568
93 -771 99 -777 5 -6 494 57 854 109 l72 10 0 105 0 105 -334 -4 -334 -3 -5
35 c-15 102 -110 961 -106 964 4 3 34 5 496 27 139 7 257 15 263 19 10 6 51
211 44 219 -2 2 -120 15 -261 27 -142 12 -388 34 -548 48 -363 32 -345 32
-345 1z"/>
<path d="M4984 6548 c6 -57 17 -217 41 -593 8 -132 17 -267 20 -300 3 -33 9
-125 15 -205 38 -581 31 -523 60 -525 14 -1 131 -6 260 -9 129 -4 253 -9 275
-11 22 -2 146 -7 275 -10 129 -4 238 -9 242 -11 4 -3 11 12 17 33 28 110 164
734 160 736 -2 2 -109 50 -236 107 -212 93 -232 104 -227 124 3 11 49 172 103
356 67 227 95 337 87 341 -6 4 -255 9 -554 13 l-543 6 5 -52z m690 -425 c-47
-109 -90 -201 -96 -204 -6 -4 -59 -7 -119 -8 -94 -2 -109 0 -117 16 -17 32
-125 334 -121 338 4 3 416 47 501 53 l36 3 -84 -198z m9 -572 c180 -21 330
-41 334 -44 3 -4 -27 -94 -68 -202 l-73 -196 -220 7 c-122 4 -223 8 -225 10
-5 5 -120 435 -121 452 0 17 4 16 373 -27z"/>
<path d="M6623 6573 c3 -15 9 -95 12 -178 3 -82 8 -179 10 -215 2 -36 7 -114
10 -175 6 -127 23 -456 30 -595 3 -52 7 -149 10 -215 6 -120 14 -238 18 -241
1 -1 45 -4 98 -7 l95 -5 27 81 c14 45 51 162 82 259 l56 177 122 -96 c67 -54
208 -165 312 -248 105 -83 204 -161 220 -173 l31 -23 49 22 c28 12 51 23 53
24 1 1 -61 150 -138 331 l-140 329 191 453 c106 249 190 454 188 456 -2 2
-123 9 -269 15 -146 7 -287 14 -315 16 -27 2 -122 7 -210 10 -88 3 -182 8
-210 10 -27 2 -115 7 -193 11 l-144 6 5 -29z m781 -510 c-59 -114 -113 -215
-120 -222 -10 -11 -46 -16 -132 -19 l-119 -4 -41 208 c-23 114 -40 209 -39
211 7 7 552 48 555 41 2 -3 -45 -100 -104 -215z"/>
<path d="M8160 6582 c0 -11 9 -140 20 -288 31 -426 58 -798 76 -1074 14 -202
20 -258 33 -268 8 -6 36 -12 62 -12 37 0 49 4 53 18 3 9 28 105 57 212 29 107
53 196 55 198 5 7 499 49 506 43 4 -3 48 -118 98 -256 50 -137 92 -250 94
-252 1 -2 37 5 80 14 l78 17 -6 100 c-18 292 -21 360 -41 731 -8 154 -17 318
-19 365 -3 47 -8 146 -12 220 -3 74 -8 146 -9 160 -2 14 -4 30 -4 36 -1 8 -38
12 -115 13 -63 1 -123 3 -133 5 -10 2 -112 7 -228 10 -115 4 -232 9 -260 11
-27 2 -125 7 -217 11 -163 6 -168 5 -168 -14z m669 -359 c5 -21 39 -151 75
-288 36 -138 66 -254 66 -258 0 -7 -96 -5 -349 8 -52 3 -96 7 -99 9 -6 6 119
529 129 540 5 5 39 12 76 16 37 4 73 8 80 9 7 0 17 -16 22 -36z"/>
<path d="M9680 6573 c0 -36 38 -679 45 -758 2 -33 8 -118 11 -190 4 -71 8
-132 10 -134 1 -1 153 8 336 22 183 14 334 24 336 22 3 -2 -28 -348 -32 -352
0 0 -140 -29 -311 -63 -170 -33 -318 -63 -327 -66 -19 -6 -23 -19 -33 -101
l-6 -53 428 6 c235 3 475 6 533 7 l105 2 -1 95 c0 121 -15 546 -20 585 -2 16
-4 83 -5 147 -1 65 -4 120 -8 122 -3 1 -44 0 -91 -4 -47 -5 -130 -11 -185 -15
-55 -4 -170 -13 -255 -20 -85 -6 -156 -11 -156 -11 -4 2 -53 471 -50 474 4 4
557 62 593 62 19 0 22 7 27 68 16 171 16 162 -7 166 -12 3 -228 7 -479 11
l-458 5 0 -27z"/>
<path d="M3760 5263 l-165 -105 1 -54 c1 -30 3 -56 5 -58 2 -2 51 -7 109 -10
58 -4 134 -9 170 -11 36 -2 110 -7 165 -10 116 -6 203 -12 410 -25 83 -5 174
-10 203 -10 l53 0 -3 77 -3 77 -149 113 -148 113 -97 1 c-53 0 -161 2 -241 4
l-145 3 -165 -105z m474 -75 c-3 -40 -9 -76 -11 -80 -7 -14 -71 -9 -76 5 -3 8
-8 39 -12 69 l-7 55 49 11 c26 5 52 10 56 11 5 0 5 -32 1 -71z m-314 28 c0
-35 -21 -121 -32 -127 -6 -4 -21 -4 -32 1 -17 6 -22 18 -26 63 -3 31 -4 61 -2
67 6 16 92 13 92 -4z m541 -28 c22 -6 39 -16 39 -23 0 -13 -30 -105 -34 -105
-2 0 -17 5 -35 11 -30 11 -31 13 -31 70 0 64 1 65 61 47z"/>
<path d="M3231 4995 c-52 -151 -53 -156 -35 -176 9 -11 21 -16 25 -12 3 5 30
69 59 143 l52 135 -18 32 c-9 18 -20 33 -23 33 -3 0 -30 -70 -60 -155z"/>
<path d="M4970 5089 c-7 -17 -13 -37 -13 -44 0 -7 24 -72 54 -145 52 -129 54
-131 71 -110 16 20 15 27 -33 168 -28 81 -54 151 -59 155 -4 4 -13 -6 -20 -24z"/>
<path d="M3367 5028 c-2 -7 -28 -70 -56 -140 -44 -108 -51 -130 -41 -149 7
-11 15 -17 19 -13 4 5 36 69 71 141 62 130 63 133 45 153 -21 23 -31 25 -38 8z"/>
<path d="M4887 4972 c-10 -10 -17 -23 -17 -29 0 -6 20 -55 44 -110 24 -55 52
-117 60 -138 l17 -39 21 21 21 21 -58 146 c-31 80 -61 146 -65 146 -4 0 -14
-8 -23 -18z"/>
<path d="M4644 4633 c3 -32 8 -114 11 -183 3 -69 8 -159 10 -200 8 -122 82
-1562 87 -1687 1 -29 5 -53 9 -53 4 0 175 66 381 146 658 257 719 281 958 374
129 50 240 97 246 103 13 14 106 859 96 869 -4 4 -185 75 -402 158 -1099 423
-1381 530 -1391 530 -6 0 -8 -22 -5 -57z m991 -688 c182 -76 334 -141 338
-145 7 -6 -28 -420 -36 -425 -1 -1 -83 -44 -182 -95 -278 -143 -404 -209 -473
-247 -35 -19 -66 -32 -70 -29 -3 3 -11 50 -18 104 -7 53 -42 317 -78 586 -37
269 -66 490 -66 491 0 4 69 -25 585 -240z"/>
<path d="M7622 4628 c-296 -24 -560 -151 -714 -343 l-53 -66 -31 68 -31 68 5
-75 4 -75 -47 -39 c-25 -21 -44 -40 -42 -42 2 -3 25 5 51 16 26 11 50 20 52
20 3 0 -7 -19 -21 -42 -42 -67 -102 -198 -120 -260 -9 -32 -19 -58 -22 -58 -3
0 -26 16 -50 36 -24 20 -46 34 -48 32 -2 -2 10 -25 26 -50 l30 -46 -15 -54
-15 -53 35 40 c20 22 33 31 28 20 -11 -30 -14 -341 -4 -410 5 -33 7 -61 5 -63
-2 -3 -20 6 -39 18 -45 27 -45 20 -1 -35 34 -41 35 -45 30 -101 l-6 -59 20 35
c13 24 21 30 24 20 28 -90 56 -157 88 -219 l40 -74 -61 6 c-33 4 -60 5 -60 3
0 -2 24 -16 53 -31 72 -38 72 -38 87 -102 10 -46 14 -54 21 -38 4 11 8 35 8
53 1 17 4 32 7 32 4 0 37 -29 74 -63 90 -85 176 -146 285 -200 271 -135 539
-165 825 -92 178 44 317 116 442 226 l67 59 25 -52 25 -53 -4 68 -5 69 53 55
c48 51 49 54 20 39 -18 -9 -33 -14 -33 -11 0 3 22 49 49 103 60 119 106 255
126 370 20 116 21 336 1 437 -9 44 -16 81 -16 83 0 2 21 -10 47 -25 49 -28 49
-23 0 39 -27 34 -29 42 -24 93 6 62 -1 64 -27 6 l-18 -40 -49 95 c-53 104 -95
168 -173 258 -28 33 -44 57 -35 54 9 -3 42 -9 75 -13 l59 -6 -63 36 c-60 35
-63 39 -79 97 -18 63 -31 60 -32 -9 -2 -65 -8 -66 -72 -13 -243 202 -485 282
-777 258z"/>
<path d="M6876 4584 c-10 -27 -7 -44 9 -44 10 0 15 10 15 30 0 32 -14 40 -24
14z"/>
<path d="M3289 2020 c-4 -18 8 -263 36 -695 2 -38 7 -124 10 -190 3 -66 8
-138 10 -160 2 -22 7 -101 10 -175 4 -74 8 -145 10 -157 2 -12 7 -93 11 -181
3 -88 10 -166 14 -173 5 -7 39 -14 82 -17 l73 -4 53 173 c29 96 67 218 84 273
l30 99 127 -7 c140 -7 237 -14 294 -22 l38 -4 39 82 c21 46 91 198 155 338 64
140 162 353 217 473 56 119 99 220 96 223 -3 2 -302 32 -664 64 -363 33 -674
61 -691 63 -18 2 -34 1 -34 -3z m918 -452 c-8 -18 -53 -125 -101 -238 l-87
-205 -107 7 c-59 4 -133 8 -165 9 -32 1 -60 6 -63 10 -2 4 -22 97 -44 206 -22
109 -42 208 -45 221 l-5 22 315 0 315 0 -13 -32z"/>
<path d="M4794 1947 c16 -215 36 -497 46 -637 9 -140 23 -336 35 -495 2 -33 7
-91 10 -130 22 -304 28 -380 29 -381 0 -1 28 -4 62 -8 l61 -7 57 213 c31 117
59 220 62 228 3 13 53 20 263 39 142 13 263 21 267 18 5 -3 52 -123 104 -266
76 -209 99 -261 113 -261 10 0 47 7 83 16 l66 17 -6 86 c-3 47 -8 138 -11 201
-3 63 -8 149 -10 190 -9 157 -15 259 -20 365 -3 61 -7 144 -10 185 -3 41 -9
163 -15 270 -11 224 -21 384 -23 386 -2 1 -69 5 -422 19 -66 3 -163 7 -215 10
-52 3 -174 7 -270 10 -96 4 -195 8 -219 11 l-44 4 7 -83z m729 -454 c26 -98
62 -236 81 -306 l34 -129 -207 7 c-276 10 -266 9 -265 26 3 33 127 545 135
553 7 8 85 20 155 25 19 1 25 -16 67 -176z"/>
<path d="M6374 1945 c3 -44 8 -120 11 -170 3 -49 7 -121 10 -160 8 -123 15
-236 25 -420 12 -206 20 -318 26 -324 3 -4 522 33 645 45 l55 6 -17 -182 c-10
-100 -20 -184 -23 -188 -3 -3 -157 -35 -341 -72 -184 -37 -337 -69 -340 -72
-3 -2 -8 -39 -11 -81 l-7 -76 49 4 c46 4 736 15 962 15 l103 0 -6 158 c-3 86
-8 193 -10 237 -2 44 -7 172 -10 285 -6 222 -13 310 -23 310 -4 0 -163 -12
-354 -26 -192 -15 -350 -25 -352 -23 -7 6 -58 469 -53 482 2 8 112 23 316 43
205 20 316 35 321 43 7 12 23 221 17 227 -2 3 -317 9 -870 18 l-128 2 5 -81z"/>
<path d="M9160 2021 c0 -5 15 -240 35 -551 3 -47 8 -114 10 -150 3 -36 16
-247 30 -470 30 -499 36 -584 41 -589 4 -4 415 21 836 51 l157 11 -5 56 c-10
114 -13 144 -17 147 -2 2 -140 7 -308 10 -167 4 -305 7 -306 8 -1 1 -48 294
-60 376 l-5 36 328 39 329 40 3 92 c3 110 28 98 -223 113 -99 6 -200 12 -225
15 -25 2 -96 7 -157 11 -62 3 -113 8 -113 11 0 8 61 409 65 430 5 24 30 28
230 38 61 3 135 7 165 10 30 2 100 7 155 11 55 3 101 7 102 8 5 5 45 227 42
230 -2 2 -213 7 -469 11 -256 4 -504 8 -552 9 -49 1 -88 0 -88 -3z"/>
<path d="M7825 2008 c-8 -26 -54 -333 -50 -337 5 -4 318 15 398 25 l49 6 -6
-63 c-31 -327 -116 -1312 -116 -1345 l0 -34 226 0 226 0 -6 338 c-4 185 -9
348 -11 362 -2 14 -7 190 -10 391 l-7 366 44 6 c23 4 109 12 190 18 l147 12 3
129 3 128 -220 0 c-121 0 -363 3 -538 6 -256 4 -318 3 -322 -8z"/>
</g>
</svg>
