<?xml version="1.0" standalone="no"?>
<!DOCTYPE svg PUBLIC "-//W3C//DTD SVG 20010904//EN"
 "http://www.w3.org/TR/2001/REC-SVG-20010904/DTD/svg10.dtd">
<svg version="1.0" xmlns="http://www.w3.org/2000/svg"
 width="1280.000000pt" height="720.000000pt" viewBox="0 0 1280.000000 720.000000"
 preserveAspectRatio="xMidYMid meet">

<g transform="translate(0.000000,720.000000) scale(0.100000,-0.100000)"
fill="#000000" stroke="none">
<path d="M4068 6648 c-338 -534 -783 -1243 -782 -1248 8 -41 88 -310 93 -310
3 1 177 120 386 266 209 146 385 268 392 271 9 3 620 -466 736 -565 9 -8 19
-13 21 -11 3 2 26 106 51 231 l47 227 -422 628 c-233 345 -426 632 -430 636
-4 5 -46 -51 -92 -125z m83 -375 c1 -27 4 -61 8 -78 l6 -29 34 52 c29 46 36
51 48 39 12 -11 8 -25 -23 -95 l-37 -81 42 -70 c31 -53 40 -77 35 -96 -3 -14
-9 -25 -13 -25 -3 0 -23 19 -43 42 l-37 43 -1 -78 c0 -69 -2 -78 -17 -75 -14
2 -20 19 -28 70 -5 37 -12 69 -15 72 -3 3 -21 -15 -40 -39 -19 -24 -38 -44
-41 -45 -4 0 -10 11 -13 25 -4 17 3 43 24 85 16 33 30 63 30 68 0 5 -16 30
-35 55 -31 41 -34 48 -24 76 l11 31 44 -36 44 -36 0 79 c0 81 3 93 27 93 9 0
13 -15 14 -47z m596 -573 c-5 -55 2 -75 18 -50 3 5 15 14 25 20 15 8 21 6 29
-8 7 -14 1 -28 -28 -67 l-38 -49 27 -71 c25 -68 28 -95 9 -95 -4 0 -18 23 -31
52 -20 47 -22 49 -29 27 -4 -13 -10 -41 -14 -61 -10 -63 -25 -43 -25 33 l0 71
-34 -21 c-18 -12 -36 -21 -40 -21 -15 0 -4 46 19 76 30 40 31 53 5 105 -17 32
-18 43 -9 61 11 20 12 19 38 -21 14 -22 29 -41 32 -41 4 0 9 27 13 60 5 45 11
60 23 60 13 0 15 -10 10 -60z m-1123 -52 c-8 -40 -14 -74 -14 -74 0 -1 18 -13
40 -28 24 -16 40 -34 40 -46 0 -23 -7 -24 -46 -10 l-26 10 6 -42 c11 -72 11
-81 0 -85 -6 -2 -17 15 -24 37 -7 23 -17 43 -21 46 -4 2 -16 -20 -25 -51 -24
-74 -39 -58 -27 28 9 65 9 65 -19 82 -19 11 -28 24 -28 41 0 21 5 24 34 24
l33 0 -9 51 c-14 78 -1 95 26 34 l23 -50 12 53 c7 29 19 52 26 52 10 0 10 -14
-1 -72z"/>
<path d="M2016 6610 c-2 -3 201 -1692 204 -1695 0 -1 206 27 458 62 251 34
460 63 465 63 4 0 7 48 7 106 l0 105 -335 -3 c-184 -2 -335 0 -335 3 0 4 -25
221 -55 484 -30 262 -55 484 -55 494 0 15 33 19 378 35 207 10 380 21 385 25
9 8 47 214 41 220 -3 3 -246 26 -542 52 -295 27 -554 49 -575 51 -21 2 -40 1
-41 -2z"/>
<path d="M4984 6539 c4 -35 29 -404 56 -819 28 -415 51 -764 53 -775 2 -19 17
-21 542 -41 297 -11 542 -19 544 -17 5 4 170 732 171 753 0 10 -72 47 -222
113 -123 54 -229 101 -235 105 -9 6 14 99 91 362 57 195 101 358 97 361 -3 4
-253 10 -554 14 l-549 7 6 -63z m688 -419 l-85 -200 -123 0 -122 0 -10 28 c-5
15 -33 92 -62 171 -28 78 -50 144 -48 146 3 3 460 51 510 54 l26 1 -86 -200z
m12 -570 c180 -21 331 -41 333 -44 3 -3 -27 -93 -67 -200 l-73 -196 -221 7
c-122 3 -223 7 -225 9 -5 5 -120 435 -121 452 0 17 4 16 374 -28z"/>
<path d="M6626 6518 c3 -46 23 -415 43 -821 21 -405 40 -739 42 -741 2 -2 47
-6 99 -10 l96 -7 26 83 c15 46 52 163 83 260 l56 177 332 -263 c183 -144 337
-265 344 -269 9 -6 98 24 111 37 1 2 -60 151 -138 332 l-140 329 191 453 c106
249 190 454 188 456 -4 4 -1250 66 -1311 66 l-27 0 5 -82z m884 -243 c0 -8
-208 -408 -222 -428 -11 -14 -35 -18 -134 -23 l-121 -7 -41 209 c-22 115 -39
210 -38 211 3 4 448 40 504 42 28 0 52 -1 52 -4z"/>
<path d="M8160 6593 c-2 -45 114 -1622 119 -1633 12 -22 110 -31 120 -10 4 8
32 105 61 215 29 110 54 201 55 202 4 7 507 48 511 42 2 -4 45 -119 94 -255
50 -137 92 -249 94 -251 1 -2 37 5 79 14 76 16 77 17 76 47 -1 93 -86 1586
-89 1589 -4 3 -1050 48 -1102 47 -10 0 -18 -3 -18 -7z m673 -390 c52 -190 138
-525 135 -528 -4 -5 -441 15 -446 20 -5 5 119 528 128 538 4 5 41 12 81 17 41
4 77 8 80 9 4 0 13 -25 22 -56z"/>
<path d="M9680 6569 c0 -58 62 -1074 66 -1078 2 -2 154 7 336 21 183 14 334
25 336 23 1 -1 -5 -81 -14 -177 l-17 -176 -320 -63 c-176 -35 -325 -68 -332
-74 -7 -5 -16 -40 -19 -78 l-7 -67 533 6 c293 4 535 8 537 10 6 5 -31 939 -38
946 -3 3 -159 -6 -347 -21 l-341 -27 -26 235 c-14 130 -25 237 -23 238 2 2
140 17 307 34 167 17 306 32 307 34 8 8 21 220 14 226 -4 4 -220 10 -479 14
l-473 7 0 -33z"/>
<path d="M3758 5263 l-168 -106 0 -46 c0 -25 4 -52 8 -58 6 -9 152 -21 512
-43 278 -16 526 -30 553 -30 l47 0 0 75 0 74 -122 94 c-68 51 -136 103 -153
115 -28 20 -45 22 -270 27 l-240 5 -167 -107z m476 -70 c-8 -79 -16 -93 -54
-93 -30 0 -33 6 -45 92 l-7 46 54 10 c29 5 54 10 56 11 1 0 0 -29 -4 -66z
m-314 24 c0 -8 -5 -39 -11 -71 -12 -56 -13 -57 -43 -54 -31 3 -31 3 -34 71
l-3 67 46 0 c31 0 45 -4 45 -13z m541 -29 c22 -6 39 -16 39 -23 0 -13 -30
-105 -34 -105 -2 0 -17 5 -35 11 -27 10 -31 15 -31 47 0 40 9 82 18 82 2 0 22
-5 43 -12z"/>
<path d="M3231 4995 c-52 -151 -53 -156 -36 -175 10 -11 22 -17 25 -13 4 5 31
68 60 141 52 133 53 134 37 168 -9 19 -20 34 -24 34 -5 0 -32 -70 -62 -155z"/>
<path d="M4967 5085 l-17 -35 57 -142 c56 -140 57 -141 74 -119 17 21 16 26
-32 169 -28 81 -54 150 -58 155 -4 4 -15 -9 -24 -28z"/>
<path d="M3316 4903 c-49 -118 -55 -141 -46 -162 6 -14 15 -20 20 -15 4 5 36
69 71 142 60 128 62 133 44 152 -10 11 -21 20 -25 20 -4 0 -33 -62 -64 -137z"/>
<path d="M4887 4972 c-10 -10 -17 -23 -17 -29 0 -12 109 -265 119 -276 4 -4
16 1 25 12 18 19 16 25 -39 166 -31 80 -60 145 -64 145 -4 0 -15 -8 -24 -18z"/>
<path d="M4643 4629 c3 -35 30 -526 59 -1091 29 -566 56 -1028 59 -1028 5 0
1494 579 1584 616 9 4 111 874 103 878 -10 7 -1768 678 -1787 683 -24 6 -24 6
-18 -58z m972 -676 c193 -81 354 -149 358 -153 9 -8 -31 -411 -42 -423 -13
-13 -714 -377 -718 -373 -3 3 -162 1156 -163 1183 0 1 48 -19 108 -43 59 -25
265 -111 457 -191z"/>
<path d="M7655 4634 c-329 -30 -588 -151 -747 -349 l-53 -66 -32 68 -32 68 6
-73 6 -73 -54 -49 -54 -50 58 25 c32 14 60 25 62 25 3 0 -9 -22 -25 -49 -42
-67 -95 -185 -115 -254 -18 -62 -17 -62 -78 -14 -21 16 -40 28 -42 25 -2 -2
10 -25 26 -50 l30 -46 -15 -54 -15 -53 33 38 33 39 -8 -54 c-11 -75 -10 -291
1 -368 5 -35 8 -66 6 -68 -2 -1 -20 7 -40 19 -45 26 -45 19 -2 -35 33 -40 35
-45 30 -101 l-5 -60 20 35 c13 24 21 30 24 20 28 -90 55 -157 88 -219 l40 -74
-61 7 c-33 4 -60 5 -60 2 0 -3 27 -19 60 -36 58 -30 60 -32 77 -90 18 -65 33
-64 33 3 0 20 4 37 8 37 4 0 30 -23 57 -51 179 -182 455 -310 728 -339 292
-30 636 77 841 262 l65 58 24 -52 25 -53 1 75 1 74 48 49 c26 27 37 44 25 38
-42 -22 -42 -10 6 87 58 115 104 247 127 369 23 115 23 339 0 441 -9 40 -16
75 -16 78 0 3 21 -8 47 -23 49 -28 49 -23 0 39 -28 35 -29 41 -23 100 l6 63
-25 -47 c-14 -27 -27 -48 -29 -48 -3 0 -16 25 -30 56 -39 85 -93 170 -164 258
l-64 79 69 -7 c75 -8 74 -4 -10 40 -44 23 -48 29 -64 85 -18 64 -31 61 -32 -8
-2 -65 -8 -66 -72 -13 -143 119 -288 196 -442 235 -92 23 -226 36 -302 29z"/>
<path d="M6877 4593 c-13 -13 -7 -53 8 -53 10 0 15 10 15 30 0 29 -9 38 -23
23z"/>
<path d="M3283 1987 c3 -23 27 -416 54 -874 l48 -831 35 -6 c19 -3 55 -6 80
-6 l46 0 79 261 c44 143 83 265 87 271 4 8 67 7 230 -4 122 -9 226 -14 229
-12 11 6 512 1105 506 1110 -3 4 -297 32 -654 65 -356 32 -670 60 -697 63
l-48 5 5 -42z m893 -489 c-24 -57 -67 -159 -96 -228 -29 -69 -56 -129 -61
-134 -8 -9 -324 6 -334 16 -3 2 -23 94 -45 204 -22 109 -42 209 -45 222 l-5
22 314 0 315 0 -43 -102z"/>
<path d="M4790 2009 c0 -33 120 -1703 123 -1705 1 -1 29 -5 63 -9 l61 -7 58
219 c32 120 63 223 69 229 14 14 516 59 526 47 4 -4 49 -123 100 -263 51 -140
94 -257 96 -259 5 -6 139 20 154 29 8 5 0 225 -34 845 -25 461 -47 839 -48
841 -2 1 -226 12 -498 23 -272 11 -534 23 -582 26 -85 6 -88 5 -88 -16z m767
-645 l80 -305 -201 7 c-111 3 -217 9 -237 13 l-35 6 65 277 c36 152 69 280 74
284 4 4 40 11 80 14 39 4 77 8 83 9 6 0 46 -134 91 -305z"/>
<path d="M6370 2012 c0 -68 70 -1136 75 -1140 3 -3 159 6 348 20 188 15 344
24 346 22 6 -6 -27 -355 -33 -362 -3 -2 -156 -35 -341 -72 -185 -37 -338 -69
-340 -72 -3 -3 -8 -38 -11 -79 l-7 -75 189 3 c104 2 354 6 557 9 l367 6 -1 52
c-1 158 -36 926 -41 932 -4 3 -165 -6 -358 -21 -193 -15 -352 -26 -354 -24 -2
2 -16 112 -30 243 -19 162 -24 241 -17 246 6 3 146 19 312 35 165 16 307 34
314 40 8 6 15 49 20 121 l7 112 -204 6 c-112 3 -337 8 -500 10 -277 5 -298 4
-298 -12z"/>
<path d="M9160 2023 c0 -38 111 -1750 114 -1758 2 -7 170 1 497 23 272 18 495
34 495 35 5 5 -10 187 -16 196 -4 8 -102 14 -313 18 -183 4 -307 10 -307 16 0
5 -14 97 -31 204 -17 107 -29 196 -27 197 2 2 150 20 331 42 l327 38 0 96 0
96 -357 23 c-197 13 -359 24 -361 26 -3 3 66 446 71 451 2 2 147 13 322 24
175 11 320 22 322 24 4 4 43 205 43 222 0 8 -101 13 -357 18 -197 3 -447 9
-555 12 -109 3 -198 2 -198 -3z"/>
<path d="M7825 2008 c-10 -29 -55 -331 -50 -336 3 -3 103 1 223 10 119 8 218
14 219 14 1 -1 -26 -321 -61 -711 -34 -391 -61 -713 -59 -718 4 -7 446 -10
454 -3 2 2 -4 329 -15 726 -10 397 -16 723 -14 726 3 2 85 11 184 19 98 9 185
18 192 20 9 3 12 38 12 128 l0 124 -332 6 c-525 11 -748 9 -753 -5z"/>
</g>
</svg>
